<svg width="1280" height="720" xmlns="http://www.w3.org/2000/svg" xmlns:xlink="http://www.w3.org/1999/xlink" overflow="hidden"><defs><clipPath id="clip0"><rect x="0" y="0" width="1280" height="720"/></clipPath></defs><g clip-path="url(#clip0)"><rect x="0" y="0" width="1280" height="720" fill="#F5F5F5"/><rect x="873" y="163" width="408" height="370" fill="#D7E6F5"/><rect x="0" y="324" width="1280" height="400" fill="#D7E6F5"/><path d="M321.5 181C321.5 171.335 329.335 163.5 339 163.5L624 163.5C633.665 163.5 641.5 171.335 641.5 181L641.5 251C641.5 260.665 633.665 268.5 624 268.5L339 268.5C329.335 268.5 321.5 260.665 321.5 251Z" stroke="#E97132" stroke-width="1.33333" stroke-miterlimit="8" fill="#FFF4E4" fill-rule="evenodd"/><text fill="#333333" font-family="Yu Gothic,Yu Gothic_MSFontService,sans-serif" font-weight="400" font-size="24" transform="translate(373.038 252)">動画再生プログラム</text><path d="M323.5 44.8431C323.5 36.9217 329.922 30.5001 337.843 30.5001L627.157 30.5001C635.078 30.5001 641.5 36.9217 641.5 44.8431L641.5 205.157C641.5 213.078 635.078 219.5 627.157 219.5L337.843 219.5C329.922 219.5 323.5 213.078 323.5 205.157Z" stroke="#000000" stroke-width="3" stroke-miterlimit="8" fill="#FFFFFF" fill-rule="evenodd"/><rect x="571" y="41" width="70" height="54" stroke="#000000" stroke-width="2" stroke-miterlimit="8"/><rect x="585" y="111" width="56" height="42" stroke="#000000" stroke-width="2" stroke-miterlimit="8"/><rect x="585" y="165" width="56" height="42" stroke="#000000" stroke-width="2" stroke-miterlimit="8"/><rect x="350" y="193" width="22" height="32" stroke="#000000" stroke-width="2" stroke-miterlimit="8"/><rect x="408" y="193" width="17" height="32" stroke="#000000" stroke-width="2" stroke-miterlimit="8"/><rect x="453" y="193" width="16" height="32" stroke="#000000" stroke-width="2" stroke-miterlimit="8"/><rect x="493" y="153" width="5" height="55" stroke="#000000" stroke-width="2" stroke-miterlimit="8"/><rect x="518" y="188" width="14" height="37" stroke="#000000" stroke-width="2" stroke-miterlimit="8"/><path d="M327 208C327 203.582 330.582 200 335 200 339.418 200 343 203.582 343 208 343 212.418 339.418 216 335 216 330.582 216 327 212.418 327 208Z" stroke="#000000" stroke-width="2" stroke-miterlimit="8" fill="#FFFFFF" fill-rule="evenodd"/><path d="M553 208.5C553 204.358 556.582 201 561 201 565.418 201 569 204.358 569 208.5 569 212.642 565.418 216 561 216 556.582 216 553 212.642 553 208.5Z" stroke="#000000" stroke-width="2" stroke-miterlimit="8" fill="#FFFFFF" fill-rule="evenodd"/><path d="M327 41.5C327 37.3579 330.582 34 335 34 339.418 34 343 37.3579 343 41.5 343 45.6421 339.418 49 335 49 330.582 49 327 45.6421 327 41.5Z" stroke="#000000" stroke-width="2" stroke-miterlimit="8" fill="#FFFFFF" fill-rule="evenodd"/><path d="M553 41.5C553 37.3579 556.582 34 561 34 565.418 34 569 37.3579 569 41.5 569 45.6421 565.418 49 561 49 556.582 49 553 45.6421 553 41.5Z" stroke="#000000" stroke-width="2" stroke-miterlimit="8" fill="#FFFFFF" fill-rule="evenodd"/><text font-family="Yu Mincho,Yu Mincho_MSFontService,sans-serif" font-weight="400" font-size="24" transform="translate(375.413 132)">Raspberry Pi 4B</text><rect x="327" y="93" width="4" height="55" stroke="#000000" stroke-width="2" stroke-miterlimit="8"/><path d="M641 68 719.156 68.9759" stroke="#E97132" stroke-width="6" stroke-miterlimit="8" fill="none" fill-rule="evenodd"/><path d="M719 68 719 244.167" stroke="#E97132" stroke-width="6" stroke-miterlimit="8" fill="none" fill-rule="evenodd"/><text fill="#333333" font-family="Yu Gothic,Yu Gothic_MSFontService,sans-serif" font-weight="400" font-size="24" transform="matrix(-1.83697e-16 -1 1 -1.83697e-16 668.829 65)">RJ45</text><text fill="#333333" font-family="Yu Gothic,Yu Gothic_MSFontService,sans-serif" font-weight="400" font-size="24" transform="matrix(-1.83697e-16 -1 1 -1.83697e-16 713.898 165)">WAN</text><text fill="#333333" font-family="Yu Gothic,Yu Gothic_MSFontService,sans-serif" font-weight="400" font-size="24" transform="matrix(-1.83697e-16 -1 1 -1.83697e-16 742.898 163)">RJ45</text><text fill="#333333" font-family="Yu Gothic,Yu Gothic_MSFontService,sans-serif" font-weight="400" font-size="24" transform="translate(692.786 64)">LAN</text><text fill="#333333" font-family="Yu Gothic,Yu Gothic_MSFontService,sans-serif" font-weight="400" font-size="24" transform="translate(747.452 64)">Cable</text><path d="M149 123 321.653 126.222" stroke="#FF0000" stroke-width="4" stroke-linejoin="round" stroke-miterlimit="10" stroke-dasharray="16 12" fill="none" fill-rule="evenodd"/><text fill="#333333" font-family="Yu Gothic,Yu Gothic_MSFontService,sans-serif" font-weight="400" font-size="56" transform="translate(96.6075 133)">or</text><text fill="#333333" font-family="Yu Gothic,Yu Gothic_MSFontService,sans-serif" font-weight="400" font-size="24" transform="translate(220.926 117)">Wi</text><text fill="#333333" font-family="Yu Gothic,Yu Gothic_MSFontService,sans-serif" font-weight="400" font-size="24" transform="translate(249.592 117)">-</text><text fill="#333333" font-family="Yu Gothic,Yu Gothic_MSFontService,sans-serif" font-weight="400" font-size="24" transform="translate(260.092 117)">Fi</text><text fill="#333333" font-family="Yu Gothic,Yu Gothic_MSFontService,sans-serif" font-weight="400" font-size="24" transform="matrix(-1.83697e-16 -1 1 -1.83697e-16 314.983 121)">内蔵</text><text fill="#333333" font-family="Yu Gothic,Yu Gothic_MSFontService,sans-serif" font-weight="400" font-size="24" transform="matrix(-1.83697e-16 -1 1 -1.83697e-16 314.983 73)">Wi</text><text fill="#333333" font-family="Yu Gothic,Yu Gothic_MSFontService,sans-serif" font-weight="400" font-size="24" transform="matrix(-1.83697e-16 -1 1 -1.83697e-16 314.983 45)">-</text><text fill="#333333" font-family="Yu Gothic,Yu Gothic_MSFontService,sans-serif" font-weight="400" font-size="24" transform="matrix(-1.83697e-16 -1 1 -1.83697e-16 314.983 34)">Fi</text><rect x="171" y="522" width="153" height="192" stroke="#042433" stroke-width="2" stroke-miterlimit="8" fill="#EAF7F3"/><text fill="#333333" font-family="Yu Gothic,Yu Gothic_MSFontService,sans-serif" font-weight="400" font-size="26.6667" transform="translate(180.786 610)">ミニチュア</text><text fill="#333333" font-family="Yu Gothic,Yu Gothic_MSFontService,sans-serif" font-weight="400" font-size="26.6667" transform="translate(200.953 642)">IoT</text><text fill="#333333" font-family="Yu Gothic,Yu Gothic_MSFontService,sans-serif" font-weight="400" font-size="26.6667" transform="translate(240.619 642)">家電</text><text fill="#333333" font-family="Yu Gothic,Yu Gothic_MSFontService,sans-serif" font-weight="400" font-size="58.6667" transform="translate(796.432 468)">Wi</text><text fill="#333333" font-family="Yu Gothic,Yu Gothic_MSFontService,sans-serif" font-weight="400" font-size="58.6667" transform="translate(866.265 468)">-</text><text fill="#333333" font-family="Yu Gothic,Yu Gothic_MSFontService,sans-serif" font-weight="400" font-size="58.6667" transform="translate(891.765 468)">Fi</text><path d="M-1 488 1279 488" stroke="#163E64" stroke-width="6" stroke-linejoin="round" stroke-miterlimit="10" stroke-dasharray="24 18" fill="none" fill-rule="evenodd"/><path d="M0-3 38.2285-3 38.2285 55.0171 35.2285 52.0171 297.559 52.0171 297.559 58.0171 32.2285 58.0171 32.2285 0 35.2285 3 0 3ZM294.559 46.0171 312.559 55.0171 294.559 64.0171Z" fill="#FF0000" transform="matrix(1 0 0 -1 328 123.017)"/><path d="M34 537.334C34 527.761 41.7606 520 51.3338 520L120.666 520C130.239 520 138 527.761 138 537.334L138 692.666C138 702.239 130.239 710 120.666 710L51.3338 710C41.7606 710 34 702.239 34 692.666Z" stroke="#4EA72E" stroke-width="2" stroke-miterlimit="8" fill="#FFFFFF" fill-rule="evenodd"/><path d="M80 692.5C80 687.806 83.8056 684 88.5 684 93.1944 684 97 687.806 97 692.5 97 697.194 93.1944 701 88.5 701 83.8056 701 80 697.194 80 692.5Z" stroke="#4EA72E" stroke-width="2" stroke-miterlimit="8" fill="#FFFFFF" fill-rule="evenodd"/><rect x="39" y="534" width="94" height="148" stroke="#4EA72E" stroke-width="2" stroke-miterlimit="8" fill="#FFFFFF"/><text fill="#333333" font-family="Yu Gothic,Yu Gothic_MSFontService,sans-serif" font-weight="400" font-size="24" transform="translate(49.5808 601)">コント</text><text fill="#333333" font-family="Yu Gothic,Yu Gothic_MSFontService,sans-serif" font-weight="400" font-size="24" transform="translate(49.5808 630)">ローラ</text><text fill="#333333" font-family="Yu Gothic,Yu Gothic_MSFontService,sans-serif" font-weight="400" font-size="24" transform="translate(341.309 62)">Ethernet</text><text fill="#333333" font-family="Yu Gothic,Yu Gothic_MSFontService,sans-serif" font-weight="400" font-size="24" transform="translate(436.475 62)">コンバータ</text><rect x="355" y="269" width="150" height="191" stroke="#042433" stroke-width="2" stroke-miterlimit="8" fill="#EAF7F3"/><text fill="#333333" font-family="Yu Gothic,Yu Gothic_MSFontService,sans-serif" font-weight="400" font-size="26.6667" transform="translate(396.689 357)">Wi</text><text fill="#333333" font-family="Yu Gothic,Yu Gothic_MSFontService,sans-serif" font-weight="400" font-size="26.6667" transform="translate(428.523 357)">-</text><text fill="#333333" font-family="Yu Gothic,Yu Gothic_MSFontService,sans-serif" font-weight="400" font-size="26.6667" transform="translate(440.189 357)">Fi</text><text fill="#333333" font-family="Yu Gothic,Yu Gothic_MSFontService,sans-serif" font-weight="400" font-size="26.6667" transform="translate(376.689 389)">通信基板</text><path d="M0 0 198.115 0.361785" stroke="#163E64" stroke-width="8" stroke-miterlimit="8" fill="none" fill-rule="evenodd" transform="matrix(1 0 0 -1 907 300.362)"/><rect x="1108" y="247" width="131" height="117" stroke="#4EA72E" stroke-width="2" stroke-miterlimit="8" fill="#FFFFFF"/><rect x="1122" y="260" width="103" height="76" stroke="#000000" stroke-width="2" stroke-miterlimit="8"/><rect x="1147" y="321" width="52" height="33" stroke="#000000" stroke-width="2" stroke-miterlimit="8"/><text fill="#333333" font-family="Yu Gothic,Yu Gothic_MSFontService,sans-serif" font-weight="400" font-size="24" transform="translate(1086.51 207)">フロントパネル</text><text fill="#333333" font-family="Yu Gothic,Yu Gothic_MSFontService,sans-serif" font-weight="400" font-size="24" transform="translate(1144.34 236)">RJ45</text><path d="M675 200.334C675 181.372 690.372 166 709.334 166L872.666 166C891.628 166 907 181.372 907 200.334L907 337.666C907 356.628 891.628 372 872.666 372L709.334 372C690.372 372 675 356.628 675 337.666Z" stroke="#042433" stroke-width="2" stroke-miterlimit="8" fill="#4178E7" fill-rule="evenodd"/><path d="M775.075 220.248 782.466 220.248 782.466 252.446 775.075 252.446ZM774.789 206.928 782.781 206.928 782.781 214.49 774.789 214.49ZM717.724 206.928 725.773 206.928 729.039 227.696C729.956 233.826 730.72 239.46 731.331 244.597L732.161 244.597C732.352 243.298 732.61 241.408 732.935 238.925 733.584 233.941 734.128 230.255 734.568 227.868L738.263 206.928 748.404 206.928 752.213 228.555C753.149 233.998 753.894 239.345 754.448 244.597L755.279 244.597C755.47 243.279 755.871 240.309 756.482 235.688 756.883 232.747 757.246 230.255 757.57 228.211L761.065 206.928 768.656 206.928 759.547 252.446 749.807 252.446 745.883 231.248C745.443 228.88 744.603 223.189 743.362 214.175L742.531 214.175C741.424 222.234 740.583 227.849 740.01 231.019L736.315 252.446 726.575 252.446Z" stroke="#FFFFFF" stroke-linejoin="round" stroke-miterlimit="10" fill="#333333" fill-rule="evenodd"/><text fill="#000000" fill-opacity="0" font-family="Arial,Arial_MSFontService,sans-serif" font-size="45.5182" x="717.724" y="246.756">Wi</text><path d="M790.917 231.792 808.047 231.792 808.047 237.55 790.917 237.55Z" stroke="#FFFFFF" stroke-linejoin="round" stroke-miterlimit="10" fill="#333333" fill-rule="evenodd"/><text fill="#000000" fill-opacity="0" font-family="Arial,Arial_MSFontService,sans-serif" font-size="5.75781" x="790.917" y="236.83">-</text><path d="M853.742 220.248 861.133 220.248 861.133 252.446 853.742 252.446ZM853.456 206.928 861.448 206.928 861.448 214.49 853.456 214.49ZM817.487 206.928 847.479 206.928 847.479 213.201 825.479 213.201 825.479 225.461 842.122 225.461 842.122 231.735 825.479 231.735 825.479 252.446 817.487 252.446Z" stroke="#FFFFFF" stroke-linejoin="round" stroke-miterlimit="10" fill="#333333" fill-rule="evenodd"/><text fill="#000000" fill-opacity="0" font-family="Arial,Arial_MSFontService,sans-serif" font-size="45.5182" x="817.487" y="246.756">Fi</text><path d="M753.628 294.86C748.93 294.86 746.581 298.698 746.581 306.375 746.581 314.091 748.91 317.948 753.57 317.948 758.268 317.948 760.617 314.091 760.617 306.375 760.617 298.698 758.287 294.86 753.628 294.86ZM847.742 294.631C845.393 294.631 843.569 295.49 842.271 297.209 841.163 298.679 840.523 300.637 840.351 303.081L854.789 303.081C854.426 297.448 852.077 294.631 847.742 294.631ZM775.794 290.248 783.357 290.248 783.357 311.646C783.357 315.179 784.865 316.946 787.883 316.946 789.334 316.946 790.805 316.354 792.294 315.17 793.555 314.158 794.567 312.907 795.331 311.417L795.331 290.248 802.721 290.248 802.721 322.446 795.56 322.446 795.56 316.888C794.318 318.989 792.705 320.612 790.719 321.758 788.962 322.77 787.09 323.276 785.104 323.276 782.182 323.276 779.871 322.379 778.172 320.584 776.587 318.884 775.794 316.612 775.794 313.766ZM885.867 289.532 885.38 296.464C881.274 296.464 878.228 299.185 876.242 304.628L876.242 322.446 868.966 322.446 868.966 290.248 875.898 290.248 875.898 298.154C877.98 292.406 881.303 289.532 885.867 289.532ZM847.627 289.532C852.173 289.532 855.763 291.184 858.398 294.487 860.805 297.486 862.008 301.467 862.008 306.433L862.008 307.951 840.237 307.951C840.275 311.312 841.058 313.89 842.586 315.685 843.98 317.309 845.899 318.12 848.344 318.12 851.8 318.12 854.063 316.077 855.133 311.99L861.836 313.938C859.812 320.164 855.285 323.276 848.258 323.276 843.121 323.276 839.215 321.615 836.542 318.292 834.193 315.389 833.018 311.474 833.018 306.547 833.018 300.971 834.546 296.636 837.601 293.542 840.218 290.868 843.56 289.532 847.627 289.532ZM753.628 289.532C758.325 289.532 762.002 291.222 764.656 294.602 767.005 297.6 768.18 301.506 768.18 306.318 768.18 311.875 766.671 316.201 763.654 319.295 761.056 321.949 757.695 323.276 753.57 323.276 748.834 323.276 745.148 321.586 742.513 318.206 740.183 315.227 739.018 311.322 739.018 306.49 739.018 300.952 740.536 296.626 743.573 293.513 746.189 290.859 749.541 289.532 753.628 289.532ZM708.388 282.857 708.388 296.235 716.323 296.235C722.262 296.235 725.232 293.962 725.232 289.417 725.232 285.044 722.377 282.857 716.667 282.857ZM820.76 279.735 820.76 290.248 827.979 290.248 827.979 295.633 820.76 295.633 820.76 313.308C820.76 316.401 822.088 317.948 824.742 317.948 826.174 317.948 827.425 317.824 828.495 317.576L828.208 322.847C826.585 323.095 824.666 323.219 822.45 323.219 819.185 323.219 816.836 322.436 815.404 320.87 814.124 319.476 813.484 317.404 813.484 314.654L813.484 295.633 808.672 295.633 808.672 290.248 813.484 290.248 813.484 281.396ZM700.654 276.928 717.01 276.928C727.762 276.928 733.138 281.053 733.138 289.303 733.138 292.339 732.259 294.879 730.503 296.922 728.956 298.737 726.826 300.054 724.114 300.875L734.628 322.446 726.12 322.446 716.896 302.05 714.833 302.107 708.388 302.107 708.388 322.446 700.654 322.446Z" stroke="#FFFFFF" stroke-linejoin="round" stroke-miterlimit="10" fill="#333333" fill-rule="evenodd"/><text fill="#000000" fill-opacity="0" font-family="Arial,Arial_MSFontService,sans-serif" font-size="46.349" x="700.654" y="317.483">Router</text><rect x="360" y="520" width="152" height="192" stroke="#042433" stroke-width="2" stroke-miterlimit="8" fill="#EAF7F3"/><text fill="#333333" font-family="Yu Gothic,Yu Gothic_MSFontService,sans-serif" font-weight="400" font-size="26.6667" transform="translate(369.322 608)">ミニチュア</text><text fill="#333333" font-family="Yu Gothic,Yu Gothic_MSFontService,sans-serif" font-weight="400" font-size="26.6667" transform="translate(389.489 640)">IoT</text><text fill="#333333" font-family="Yu Gothic,Yu Gothic_MSFontService,sans-serif" font-weight="400" font-size="26.6667" transform="translate(429.155 640)">家電</text><rect x="548" y="518" width="153" height="192" stroke="#042433" stroke-width="2" stroke-miterlimit="8" fill="#EAF7F3"/><text fill="#333333" font-family="Yu Gothic,Yu Gothic_MSFontService,sans-serif" font-weight="400" font-size="26.6667" transform="translate(557.78 606)">ミニチュア</text><text fill="#333333" font-family="Yu Gothic,Yu Gothic_MSFontService,sans-serif" font-weight="400" font-size="26.6667" transform="translate(577.947 638)">IoT</text><text fill="#333333" font-family="Yu Gothic,Yu Gothic_MSFontService,sans-serif" font-weight="400" font-size="26.6667" transform="translate(617.614 638)">家電</text><rect x="736" y="518" width="153" height="192" stroke="#042433" stroke-width="2" stroke-miterlimit="8" fill="#EAF7F3"/><text fill="#333333" font-family="Yu Gothic,Yu Gothic_MSFontService,sans-serif" font-weight="400" font-size="26.6667" transform="translate(746.155 606)">ミニチュア</text><text fill="#333333" font-family="Yu Gothic,Yu Gothic_MSFontService,sans-serif" font-weight="400" font-size="26.6667" transform="translate(766.322 638)">IoT</text><text fill="#333333" font-family="Yu Gothic,Yu Gothic_MSFontService,sans-serif" font-weight="400" font-size="26.6667" transform="translate(805.989 638)">家電</text><path d="M790.275 480.134 790 372" stroke="#163E64" stroke-width="6" stroke-linejoin="round" stroke-miterlimit="10" stroke-dasharray="24 18" fill="none" fill-rule="evenodd"/><rect x="923" y="519" width="153" height="192" stroke="#042433" stroke-width="2" stroke-miterlimit="8" fill="#EAF7F3"/><text fill="#333333" font-family="Yu Gothic,Yu Gothic_MSFontService,sans-serif" font-weight="400" font-size="26.6667" transform="translate(932.427 607)">ミニチュア</text><text fill="#333333" font-family="Yu Gothic,Yu Gothic_MSFontService,sans-serif" font-weight="400" font-size="26.6667" transform="translate(952.593 639)">IoT</text><text fill="#333333" font-family="Yu Gothic,Yu Gothic_MSFontService,sans-serif" font-weight="400" font-size="26.6667" transform="translate(992.26 639)">家電</text><path d="M0 0 0.000104987 30.0289" stroke="#163E64" stroke-width="6" stroke-linejoin="round" stroke-miterlimit="10" stroke-dasharray="24 18" fill="none" fill-rule="evenodd" transform="matrix(1 0 0 -1 436 483.029)"/><path d="M0 0 0.000104987 32.1669" stroke="#163E64" stroke-width="6" stroke-linejoin="round" stroke-miterlimit="10" stroke-dasharray="24 18" fill="none" fill-rule="evenodd" transform="matrix(1 0 0 -1 436 520.167)"/><path d="M0 0 0.000104987 30.221" stroke="#163E64" stroke-width="6" stroke-linejoin="round" stroke-miterlimit="10" stroke-dasharray="24 18" fill="none" fill-rule="evenodd" transform="matrix(1 0 0 -1 624 518.221)"/><path d="M0 0 0.000104987 29.9412" stroke="#163E64" stroke-width="6" stroke-linejoin="round" stroke-miterlimit="10" stroke-dasharray="24 18" fill="none" fill-rule="evenodd" transform="matrix(1 0 0 -1 813 517.941)"/><path d="M0 0 0.000104987 31.2684" stroke="#163E64" stroke-width="6" stroke-linejoin="round" stroke-miterlimit="10" stroke-dasharray="24 18" fill="none" fill-rule="evenodd" transform="matrix(1 0 0 -1 999 519.268)"/><path d="M0 0 0.000104987 29.9412" stroke="#163E64" stroke-width="6" stroke-linejoin="round" stroke-miterlimit="10" stroke-dasharray="24 18" fill="none" fill-rule="evenodd" transform="matrix(1 0 0 -1 1184 517.941)"/><path d="M0 0 0.000104987 33.3543" stroke="#163E64" stroke-width="6" stroke-linejoin="round" stroke-miterlimit="10" stroke-dasharray="24 18" fill="none" fill-rule="evenodd" transform="matrix(1 0 0 -1 247 522.354)"/><path d="M0 0 0.000104987 29.7986" stroke="#163E64" stroke-width="6" stroke-linejoin="round" stroke-miterlimit="10" stroke-dasharray="24 18" fill="none" fill-rule="evenodd" transform="matrix(1 0 0 -1 86 519.799)"/><text fill="#333333" font-family="Yu Gothic,Yu Gothic_MSFontService,sans-serif" font-weight="400" font-size="88" transform="translate(27.8545 417)">LAN</text><text fill="#333333" font-family="Yu Gothic,Yu Gothic_MSFontService,sans-serif" font-weight="400" font-size="58.6667" transform="translate(991.937 287)">有線</text><path d="M374 267 374 300.913 366 300.913 366 267ZM358 271 370 247 382 271ZM382 296.913 370 320.913 358 296.913Z" fill="#F2AA84"/><text fill="#C04F15" font-family="Yu Gothic,Yu Gothic_MSFontService,sans-serif" font-weight="400" font-size="21.3333" transform="translate(374.973 295)">シリアル通信</text><path d="M833.5 75C834.611 75 835.617 75.2585 836.344 75.6765L836.919 76.1654 837.67 76.1654 837.67 124.891 837.559 124.891 838.996 142.943 839 142.943 839 166 828 166 828 142.987 828 142.987 828 142.986 828 142.943 828.003 142.943 829.519 123.913 829.624 123.913 829.624 77.7275 829.477 77.3096 829.624 76.8917 829.624 76.1654 830.081 76.1654 830.655 75.6765C831.383 75.2585 832.389 75 833.5 75Z" fill="#156082" fill-rule="evenodd"/><path d="M759 76C760.01 76 760.924 76.2585 761.586 76.6765L762.108 77.1654 762.79 77.1654 762.79 125.891 762.69 125.891 763.997 143.943 764 143.943 764 167 754 167 754 143.987 754 143.987 754 143.986 754 143.943 754.003 143.943 755.381 124.913 755.476 124.913 755.476 78.7275 755.343 78.3096 755.476 77.8917 755.476 77.1654 755.892 77.1654 756.414 76.6765C757.076 76.2585 757.99 76 759 76Z" fill="#156082" fill-rule="evenodd"/><path d="M655.947 87.7557C656.927 87.3524 657.911 87.2253 658.712 87.3458L659.403 87.5874 660.065 87.3148 678.535 132.171 678.438 132.211 686.548 148.307 686.551 148.306 695.291 169.532 685.594 173.525 676.87 152.339 676.87 152.339 676.87 152.339 676.853 152.299 676.856 152.298 670.979 134.23 671.072 134.191 653.564 91.6736 653.276 91.3423 653.247 90.9042 652.972 90.2355 653.375 90.0696 653.696 89.4111C654.179 88.762 654.968 88.159 655.947 87.7557Z" fill="#156082" fill-rule="evenodd"/><path d="M928.036 89.7834C928.999 90.2259 929.762 90.8603 930.219 91.5283L930.513 92.1992 931.164 92.4983 910.898 136.572 910.802 136.528 904.539 153.429 904.542 153.431 894.953 174.286 885.424 169.905 894.996 149.089 894.996 149.089 894.996 149.088 895.014 149.049 895.017 149.051 904.244 132.441 904.335 132.483 923.544 90.7067 923.591 90.2701 923.892 89.9507 924.194 89.2937 924.59 89.4758 925.291 89.2622C926.095 89.1741 927.074 89.3409 928.036 89.7834Z" fill="#156082" fill-rule="evenodd"/><text fill="#333333" font-family="Yu Gothic,Yu Gothic_MSFontService,sans-serif" font-weight="400" font-size="24" transform="matrix(-1.83697e-16 -1 1 -1.83697e-16 931.334 291)">LAN</text><text fill="#333333" font-family="Yu Gothic,Yu Gothic_MSFontService,sans-serif" font-weight="400" font-size="24" transform="matrix(-1.83697e-16 -1 1 -1.83697e-16 960.334 294)">RJ45</text><text font-family="Yu Gothic,Yu Gothic_MSFontService,sans-serif" font-weight="400" font-size="24" transform="translate(1111.14 391)">市販</text><text font-family="Yu Gothic,Yu Gothic_MSFontService,sans-serif" font-weight="400" font-size="24" transform="translate(1159.14 391)">IoT</text><text font-family="Yu Gothic,Yu Gothic_MSFontService,sans-serif" font-weight="400" font-size="24" transform="translate(1194.8 391)">家電</text><text font-family="Yu Gothic,Yu Gothic_MSFontService,sans-serif" font-weight="400" font-size="24" transform="translate(1128.97 420)">接続</text><text font-family="Yu Gothic,Yu Gothic_MSFontService,sans-serif" font-weight="400" font-size="24" transform="translate(1176.97 420)">可能</text><path d="M1096 540.953C1096 528.829 1105.83 519 1117.95 519L1245.05 519C1257.17 519 1267 528.829 1267 540.953L1267 687.047C1267 699.171 1257.17 709 1245.05 709L1117.95 709C1105.83 709 1096 699.171 1096 687.047Z" stroke="#042433" stroke-width="2" stroke-miterlimit="8" stroke-dasharray="8 6" fill="#F7EBF6" fill-rule="evenodd"/><text fill="#333333" font-family="Yu Gothic,Yu Gothic_MSFontService,sans-serif" font-weight="400" font-size="24" transform="translate(1115.32 622)">市販</text><text fill="#333333" font-family="Yu Gothic,Yu Gothic_MSFontService,sans-serif" font-weight="400" font-size="24" transform="translate(1163.32 622)">IoT</text><text fill="#333333" font-family="Yu Gothic,Yu Gothic_MSFontService,sans-serif" font-weight="400" font-size="24" transform="translate(1198.99 622)">家電</text><path d="M25 19 217 19 217 27.0876 185.459 27.0876 185.459 64 60.981 64 60.981 27.0876 25 27.0876Z" fill="#AEAEAE" fill-rule="evenodd"/><path d="M94.4577 44.0123 94.4577 47.8208 98.4655 47.8208 98.4655 44.0123ZM93.567 43.0513 95.5827 43.0982 97.317 43.0982 99.3561 43.0513C99.4655 43.0513 99.5202 43.106 99.5202 43.2154L99.4733 44.9029 99.4733 46.4029 99.5202 49.7427C99.5202 49.8521 99.4655 49.9068 99.3561 49.9068L98.6295 49.9068C98.5202 49.9068 98.4655 49.8521 98.4655 49.7427L98.4655 48.7349 94.4577 48.7349 94.4577 50.1763C94.4577 50.2857 94.403 50.3404 94.2936 50.3404L93.567 50.3404C93.4577 50.3404 93.403 50.2857 93.403 50.1763L93.4498 46.6724 93.4498 45.2779 93.403 43.2154C93.403 43.106 93.4577 43.0513 93.567 43.0513ZM103.985 40.2857C104.743 42.231 105.758 43.856 107.032 45.1607 108.446 43.7232 109.512 42.0982 110.231 40.2857ZM93.7428 39.7818 95.6647 39.8287 97.2702 39.8287 99.192 39.7818C99.3014 39.7818 99.3561 39.8365 99.3561 39.9458L99.3561 40.6724C99.3561 40.7818 99.3014 40.8365 99.192 40.8365L97.2702 40.7896 95.6647 40.7896 93.7428 40.8365C93.6334 40.8365 93.5788 40.7818 93.5788 40.6724L93.5788 39.9458C93.5788 39.8365 93.6334 39.7818 93.7428 39.7818ZM110.899 39.1607C111.024 39.1607 111.192 39.2896 111.403 39.5474 111.63 39.7896 111.743 39.9732 111.743 40.0982 111.743 40.1763 111.68 40.2623 111.555 40.356 111.407 40.4654 111.239 40.7232 111.051 41.1294 110.255 42.8404 109.173 44.4146 107.805 45.8521 109.227 47.0943 111.212 48.1919 113.758 49.1451 113.462 49.3873 113.262 49.6021 113.161 49.7896 113.036 50.0083 112.938 50.1177 112.868 50.1177 112.829 50.1177 112.743 50.0865 112.61 50.024 110.227 48.938 108.368 47.7974 107.032 46.6021 105.391 48.1412 103.458 49.3482 101.231 50.2232 101.067 50.2857 100.965 50.3169 100.926 50.3169 100.856 50.3169 100.766 50.2193 100.657 50.024 100.501 49.7662 100.301 49.5748 100.059 49.4498 102.419 48.6607 104.497 47.4693 106.294 45.8755 104.887 44.3833 103.774 42.5201 102.954 40.2857 102.54 40.2935 102.169 40.3052 101.84 40.3208 101.622 40.3287 101.505 40.3326 101.489 40.3326 101.38 40.3326 101.325 40.2701 101.325 40.1451L101.325 39.4185C101.325 39.3091 101.38 39.2544 101.489 39.2544L104.395 39.3013 110.137 39.3013C110.372 39.3013 110.54 39.2779 110.641 39.231 110.735 39.1841 110.821 39.1607 110.899 39.1607ZM93.7428 36.5708 95.6647 36.6177 97.2702 36.6177 99.192 36.5708C99.3014 36.5708 99.3561 36.6255 99.3561 36.7349L99.3561 37.4498C99.3561 37.5669 99.3014 37.6255 99.192 37.6255L97.2702 37.5787 95.6647 37.5787 93.7428 37.6255C93.6334 37.6255 93.5788 37.5669 93.5788 37.4498L93.5788 36.7349C93.5788 36.6255 93.6334 36.5708 93.7428 36.5708ZM82.4694 34.9302C82.9616 34.9537 83.3444 34.9966 83.6178 35.0591 83.7741 35.0826 83.8522 35.1451 83.8522 35.2466 83.8522 35.2779 83.8209 35.4068 83.7584 35.6333 83.6647 35.9849 83.6178 36.5279 83.6178 37.2623L83.6178 38.6568 85.4928 38.0826C86.2897 37.8404 86.9772 37.6177 87.5553 37.4146 87.61 37.399 87.7623 37.3443 88.0123 37.2505 88.0905 37.2193 88.1452 37.1998 88.1764 37.1919 88.1842 37.1919 88.1959 37.1919 88.2116 37.1919 88.2975 37.1919 88.3405 37.2505 88.3405 37.3677 88.3327 37.4849 88.3248 37.6568 88.317 37.8833 88.3092 38.0865 88.3014 38.2505 88.2936 38.3755 88.1842 41.0162 87.9928 42.8287 87.7194 43.813 87.5319 44.5083 87.0436 44.8677 86.2545 44.8912 85.942 44.8912 85.5123 44.8677 84.9655 44.8208 84.8248 44.8052 84.7428 44.774 84.7194 44.7271 84.6959 44.6958 84.6725 44.5904 84.6491 44.4107 84.5944 44.0982 84.5084 43.8521 84.3913 43.6724 84.9459 43.813 85.4967 43.8833 86.0436 43.8833 86.4655 43.8833 86.7272 43.6763 86.8288 43.2623 87.0944 41.9732 87.2467 40.3716 87.2858 38.4576L83.6178 39.6177 83.6178 42.7583 83.6647 45.5005C83.6647 45.5943 83.61 45.6412 83.5006 45.6412L82.7506 45.6412C82.6413 45.6412 82.5866 45.5943 82.5866 45.5005L82.6334 42.7583 82.6334 39.9224 79.9147 40.7896 79.9147 46.3091C79.9147 47.0435 79.9459 47.5435 80.0084 47.8091 80.0631 48.0591 80.1686 48.2388 80.3248 48.3482 80.7155 48.5904 81.7272 48.7115 83.36 48.7115 84.8522 48.7115 85.8913 48.6646 86.4772 48.5708 86.9538 48.4927 87.3131 48.356 87.5553 48.1607 87.86 47.9185 88.0709 47.5396 88.1881 47.024 88.2897 46.5708 88.3522 45.8755 88.3756 44.938 88.5944 45.1412 88.8248 45.2857 89.067 45.3716 89.278 45.4341 89.3834 45.5435 89.3834 45.6998 89.3834 45.7544 89.3795 45.8208 89.3717 45.899 89.3014 46.9771 89.153 47.7466 88.9264 48.2076 88.8014 48.4654 88.567 48.7388 88.2233 49.0279 87.6608 49.5044 86.0202 49.7427 83.3014 49.7427 82.0358 49.7427 81.153 49.6958 80.653 49.6021 80.2077 49.524 79.8327 49.3716 79.528 49.1451 79.1139 48.8326 78.9069 48.2076 78.9069 47.2701L78.9069 41.106C77.985 41.4185 77.4186 41.6177 77.2077 41.7037 77.1452 41.7193 77.1022 41.7271 77.0788 41.7271 77.0319 41.7271 76.9928 41.6802 76.9616 41.5865L76.7741 40.8833C76.7584 40.8521 76.7506 40.8248 76.7506 40.8013 76.7506 40.7466 76.7975 40.7115 76.8913 40.6958 77.36 40.5787 78.0319 40.3873 78.9069 40.1216L78.9069 38.8912C78.9069 37.6646 78.86 36.7154 78.7663 36.0435 79.2663 36.0669 79.6491 36.106 79.9147 36.1607 80.0788 36.1841 80.1608 36.2388 80.1608 36.3248 80.1608 36.4263 80.1178 36.5708 80.0319 36.7583 79.9538 37.0005 79.9147 37.6255 79.9147 38.6333L79.9147 39.8287 82.6334 38.9615 82.6334 37.6724C82.6334 36.4068 82.5788 35.4927 82.4694 34.9302ZM92.4655 33.3248 94.9616 33.3716 97.7975 33.3716 100.294 33.3248C100.403 33.3248 100.458 33.3794 100.458 33.4888L100.458 34.2388C100.458 34.3482 100.403 34.4029 100.294 34.4029L97.7975 34.356 94.9616 34.356 92.4655 34.4029C92.3561 34.4029 92.3014 34.3482 92.3014 34.2388L92.3014 33.4888C92.3014 33.3794 92.3561 33.3248 92.4655 33.3248ZM93.5788 30.1138 95.6413 30.1607 97.4811 30.1607 99.5436 30.1138C99.6452 30.1138 99.6959 30.1685 99.6959 30.2779L99.6959 31.0044C99.6959 31.1138 99.6452 31.1685 99.5436 31.1685L97.4811 31.1216 95.6413 31.1216 93.5788 31.1685C93.4616 31.1685 93.403 31.1138 93.403 31.0044L93.403 30.2779C93.403 30.1685 93.4616 30.1138 93.5788 30.1138ZM103.715 29.9732 105.626 30.0201 107.348 30.0201 109.294 29.9732C109.403 29.9732 109.458 30.0279 109.458 30.1373L109.411 32.1763 109.411 34.6958C109.411 35.3287 109.485 35.7076 109.633 35.8326 109.805 35.9732 110.212 36.0435 110.852 36.0435 111.548 36.0435 111.997 35.8755 112.2 35.5396 112.411 35.2115 112.516 34.5787 112.516 33.6412 112.516 33.5787 112.512 33.4849 112.505 33.3599 112.684 33.5318 112.895 33.6646 113.137 33.7583 113.364 33.8599 113.477 33.9888 113.477 34.1451 113.477 34.1685 113.473 34.2154 113.465 34.2857 113.426 35.3638 113.188 36.1099 112.751 36.524 112.391 36.8599 111.704 37.0279 110.688 37.0279 109.79 37.0279 109.219 36.9498 108.977 36.7935 108.563 36.5357 108.356 35.9576 108.356 35.0591L108.356 31.0279 104.641 31.0279C104.641 32.9732 104.391 34.4966 103.891 35.5982 103.477 36.5357 102.813 37.3404 101.899 38.0123 101.719 38.1373 101.61 38.1998 101.571 38.1998 101.516 38.1998 101.419 38.1294 101.278 37.9888 101.098 37.8091 100.883 37.6802 100.633 37.6021 101.649 36.9537 102.376 36.2271 102.813 35.4224 103.337 34.4693 103.598 33.2271 103.598 31.6958L103.551 30.1373C103.551 30.0279 103.606 29.9732 103.715 29.9732ZM72.6491 28.9654C73.1256 28.9888 73.5397 29.0279 73.8913 29.0826 74.0709 29.106 74.1608 29.1685 74.1608 29.2701 74.1608 29.3326 74.1139 29.4771 74.0202 29.7037 73.9342 29.9068 73.8913 30.5005 73.8913 31.4849L73.8913 33.2076 74.3717 33.2076 77.0319 33.1607C77.1491 33.1607 77.2077 33.2076 77.2077 33.3013L77.2077 34.0513C77.2077 34.1607 77.1491 34.2154 77.0319 34.2154L74.3483 34.1685 72.1686 34.1685C72.1608 34.3794 72.1413 35.0083 72.11 36.0552 72.0944 36.7193 72.0709 37.2662 72.0397 37.6958L74.4186 37.6958 75.9186 37.649C76.0436 37.649 76.1061 37.7115 76.1061 37.8365 76.0905 38.1412 76.0748 38.5865 76.0592 39.1724 76.0358 39.899 76.0202 40.438 76.0123 40.7896 75.9889 43.3443 75.8131 45.481 75.485 47.1998 75.3209 48.1138 75.067 48.7583 74.7233 49.1333 74.3873 49.4927 73.9108 49.6724 73.2936 49.6724 73.0592 49.6724 72.6334 49.6568 72.0163 49.6255 71.8522 49.6099 71.7545 49.5787 71.7233 49.5318 71.692 49.4849 71.6647 49.3716 71.6413 49.1919 71.6178 48.9263 71.528 48.6529 71.3717 48.3716 72.0202 48.5201 72.653 48.5943 73.2702 48.5943 73.7077 48.5943 74.0202 48.3794 74.2077 47.9498 74.3248 47.6919 74.4342 47.2115 74.5358 46.5083 74.8405 44.5005 75.0006 41.8833 75.0163 38.6568L71.9928 38.6568C71.8366 41.4537 71.5319 43.6412 71.0788 45.2193 70.6413 46.7349 69.9459 48.1802 68.9928 49.5552 68.8913 49.7115 68.8092 49.7896 68.7467 49.7896 68.6842 49.7896 68.5983 49.7349 68.4889 49.6255 68.2936 49.399 68.0631 49.2388 67.7975 49.1451 69.1725 47.4654 70.0866 45.3677 70.5397 42.8521 70.8678 40.9615 71.0592 38.0669 71.1139 34.1685L71.0084 34.1685 68.3483 34.2154C68.2389 34.2154 68.1842 34.1607 68.1842 34.0513L68.1842 33.3013C68.1842 33.2076 68.2389 33.1607 68.3483 33.1607L71.0319 33.2076 72.8131 33.2076 72.8131 31.4849C72.8131 30.2662 72.7584 29.4263 72.6491 28.9654ZM79.9616 28.9302C80.4069 29.0005 80.778 29.0982 81.0748 29.2232 81.2155 29.2857 81.2858 29.3638 81.2858 29.4576 81.2858 29.5513 81.2389 29.649 81.1452 29.7505 81.0123 29.8755 80.86 30.2037 80.6881 30.7349 80.4303 31.5005 80.1334 32.2193 79.7975 32.8912L86.1608 32.8912 89.067 32.8443C89.1764 32.8443 89.2311 32.899 89.2311 33.0083L89.2311 33.7583C89.2311 33.8677 89.1764 33.9224 89.067 33.9224L86.1608 33.8755 79.2936 33.8755C78.692 34.9849 77.9811 36.024 77.1608 36.9927 77.0358 37.1255 76.9498 37.1919 76.903 37.1919 76.8561 37.1919 76.7663 37.1255 76.6334 36.9927 76.4538 36.8365 76.2623 36.7271 76.0592 36.6646 77.7623 34.8287 78.9616 32.7935 79.6569 30.5591 79.8444 29.8951 79.9459 29.3521 79.9616 28.9302Z" stroke="#000000" stroke-linejoin="round" stroke-miterlimit="10" fill-rule="evenodd"/><text fill="#000000" fill-opacity="0" font-family="Arial,Arial_MSFontService,sans-serif" font-size="21.4102" x="67.7975" y="47.6641">施設</text><path d="M139.169 36.2076 140.657 36.2076 140.657 48.2076 139.169 48.2076ZM138.805 31.3794 141.008 31.3794 141.008 33.6177 138.805 33.6177ZM115.844 30.7115 117.52 30.7115 119.852 41.3873C120.094 42.5044 120.446 44.2896 120.907 46.7427L121.176 46.7427C121.833 43.4771 122.192 41.7271 122.255 41.4927L124.844 30.7115 127.024 30.7115 129.544 41.563C129.59 41.7427 129.954 43.4693 130.633 46.7427L130.891 46.7427C130.954 46.4537 131.137 45.5201 131.442 43.9419 131.622 43.0279 131.79 42.2271 131.946 41.5396L134.395 30.7115 136.001 30.7115 131.758 48.2076 129.673 48.2076 127.13 37.4029C126.762 35.8326 126.391 34.0669 126.016 32.106L125.758 32.106C125.469 33.7779 125.102 35.5279 124.657 37.356L122.032 48.2076 119.923 48.2076Z" stroke="#000000" stroke-linejoin="round" stroke-miterlimit="10" fill-rule="evenodd"/><text fill="#000000" fill-opacity="0" font-family="Arial,Arial_MSFontService,sans-serif" font-size="17.4961" x="115.844" y="46.0206">Wi</text><path d="M145.355 40.813 151.952 40.813 151.952 42.1607 145.355 42.1607Z" stroke="#000000" stroke-linejoin="round" stroke-miterlimit="10" fill-rule="evenodd"/><text fill="#000000" fill-opacity="0" font-family="Arial,Arial_MSFontService,sans-serif" font-size="1.34766" x="145.355" y="41.9922">-</text><path d="M171.335 36.2076 172.824 36.2076 172.824 48.2076 171.335 48.2076ZM170.972 31.3794 173.175 31.3794 173.175 33.6177 170.972 33.6177ZM156.64 30.7115 167.386 30.7115 167.386 32.0826 158.222 32.0826 158.222 38.2466 165.136 38.2466 165.136 39.6177 158.222 39.6177 158.222 48.2076 156.64 48.2076Z" stroke="#000000" stroke-linejoin="round" stroke-miterlimit="10" fill-rule="evenodd"/><text fill="#000000" fill-opacity="0" font-family="Arial,Arial_MSFontService,sans-serif" font-size="17.4961" x="156.64" y="46.0206">Fi</text><path d="M88.5 100C87.9951 100 87.5379 99.8949 87.207 99.7249L86.9461 99.5262 86.6048 99.5262 86.6048 79.7146 86.6551 79.7146 86.0016 72.3748 86 72.3748 86 63 91 63 91 72.3571 91 72.3571 91 72.3575 91 72.3748 90.9984 72.3748 90.3096 80.1122 90.2618 80.1122 90.2618 98.891 90.3286 99.0609 90.2618 99.2308 90.2618 99.5262 90.054 99.5262 89.793 99.7249C89.4621 99.8949 89.005 100 88.5 100Z" fill="#AEAEAE" fill-rule="evenodd"/><path d="M153.5 99C152.995 99 152.538 98.8977 152.207 98.7324L151.946 98.539 151.605 98.539 151.605 79.2629 151.655 79.2629 151.002 72.1214 151 72.1214 151 63 156 63 156 72.1042 156 72.1042 156 72.1046 156 72.1214 155.998 72.1214 155.31 79.6497 155.262 79.6497 155.262 97.921 155.329 98.0863 155.262 98.2516 155.262 98.539 155.054 98.539 154.793 98.7324C154.462 98.8977 154.005 99 153.5 99Z" fill="#AEAEAE" fill-rule="evenodd"/><path d="M44.5362 93.6829C44.116 93.4412 43.7872 93.1326 43.5954 92.829L43.4759 92.5343 43.1919 92.3709 52.9265 75.4477 52.9684 75.4718 56.0311 68.8893 56.0297 68.8885 60.6361 60.8805 64.7967 63.2738 60.199 71.2667 60.1991 71.2667 60.1989 71.267 60.1904 71.2818 60.1891 71.281 55.814 77.5607 55.7743 77.5378 46.5471 93.5788 46.5192 93.756 46.3802 93.8691 46.235 94.1214 46.0621 94.0219 45.7473 94.0668C45.3884 94.0536 44.9564 93.9246 44.5362 93.6829Z" fill="#AEAEAE" fill-rule="evenodd"/><path d="M196.304 96.0597C195.851 96.2335 195.404 96.2942 195.048 96.2518L194.744 96.1588 194.438 96.2763 187.436 78.0518 187.481 78.0345 184.301 71.5076 184.3 71.5081 180.987 62.8844 185.467 61.163 188.774 69.7705 188.774 69.7705 188.774 69.7708 188.781 69.7867 188.779 69.7873 190.896 77.142 190.854 77.1585 197.49 94.433 197.61 94.5663 197.61 94.7456 197.715 95.0173 197.529 95.0888 197.365 95.3615C197.129 95.6318 196.756 95.8858 196.304 96.0597Z" fill="#AEAEAE" fill-rule="evenodd"/><path d="M72 157.167C72 148.238 79.2382 141 88.1669 141L152.833 141C161.762 141 169 148.238 169 157.167L169 269.833C169 278.762 161.762 286 152.833 286L88.1669 286C79.2382 286 72 278.762 72 269.833Z" stroke="#4EA72E" stroke-width="2" stroke-miterlimit="8" fill="#FFFFFF" fill-rule="evenodd"/><path d="M115 273.5C115 269.91 118.806 267 123.5 267 128.194 267 132 269.91 132 273.5 132 277.09 128.194 280 123.5 280 118.806 280 115 277.09 115 273.5Z" stroke="#4EA72E" stroke-width="2" stroke-miterlimit="8" fill="#FFFFFF" fill-rule="evenodd"/><rect x="77" y="152" width="88" height="113" stroke="#4EA72E" stroke-width="2" stroke-miterlimit="8" fill="#FFFFFF"/><text font-family="Yu Gothic,Yu Gothic_MSFontService,sans-serif" font-weight="400" font-size="21.3333" writing-mode="tb-rl" transform="translate(115.842 154)" x="7.28125" y="2.5625">テザリング</text></g></svg>